<svg width="120" height="120" viewBox="0 0 120 120" fill="none" xmlns="http://www.w3.org/2000/svg">
<path d="M81.3194 3.92505C79.8522 3.92505 78.6253 5.09885 78.6253 6.56605C78.6253 7.20785 78.9331 7.85005 79.312 8.30905C79.3476 9.48135 79.312 10.6582 79.312 11.9008L77.5159 11.9536H8.21191V18.7149C8.53418 19.2469 9.27671 20.102 10.0607 21.1446C10.8447 22.1872 11.6763 23.3915 12.2263 24.6837C13.2888 26.3185 13.2829 108.303 13.2829 108.303C13.2829 108.303 13.3642 116.744 16.7165 116.86L52.0555 116.649C51.9559 115.024 52.2997 113.91 52.8477 113.11C51.6504 111.299 50.9461 109.153 50.9461 106.824C50.9461 100.501 56.0859 95.3618 62.4081 95.3618C63.5183 95.3618 64.5616 95.5418 65.5776 95.8371L72.2862 25.7941C72.3487 25.6828 72.3862 25.5867 72.4448 25.4773H74.135V22.0964H77.5159C77.5159 22.0964 83.2565 22.1754 83.3792 12.6941V8.25704C83.7581 7.79766 83.9601 7.20864 83.9601 6.56684C83.9601 5.09964 82.7863 3.92584 81.3191 3.92584L81.3194 3.92505ZM81.2667 4.18911C82.1604 4.18911 82.9042 4.93286 82.9042 5.82661C82.9042 6.72036 82.1604 7.41141 81.2667 7.41141C80.3729 7.41141 79.6819 6.72039 79.6819 5.82661C79.6819 4.93283 80.3729 4.18911 81.2667 4.18911Z" fill="#949494"/>
<path d="M79.7367 8.9085C80.3891 10.4679 81.298 8.25147 81.9504 9.81123L108.073 72.1742C108.726 73.7336 108.728 73.7289 110.287 73.077L114.961 71.1102L87.5273 5.63116L84.4113 6.94206L83.1492 3.80576L82.4934 2.24756C82.4934 2.24756 80.5633 3.06318 79.3774 3.55846C77.818 4.2108 77.8227 4.21276 78.4746 5.77216C79.127 7.33156 79.0508 7.26746 79.7371 8.90886L79.7367 8.9085ZM79.8859 6.2667C79.5395 5.44287 79.9363 4.469 80.7602 4.1222C81.584 3.77572 82.5094 4.19329 82.8559 5.01712C83.2024 5.84094 82.8336 6.74562 82.0098 7.09252C81.1859 7.439 80.2324 7.09053 79.8859 6.2667Z" fill="#949494"/>
<path d="M73.2274 106.83C73.2274 112.696 68.4719 117.451 62.6064 117.451C56.7409 117.451 51.9854 112.695 51.9854 106.83C51.9854 100.964 56.7409 96.209 62.6064 96.209C68.4719 96.209 73.2274 100.964 73.2274 106.83Z" fill="#949494"/>
</svg>
