<svg width="107" height="116" viewBox="0 0 107 116" fill="none" xmlns="http://www.w3.org/2000/svg">
<path d="M73.3194 1.92505C71.8522 1.92505 70.6253 3.09885 70.6253 4.56605C70.6253 5.20785 70.9331 5.85005 71.312 6.30905C71.3476 7.48135 71.312 8.65825 71.312 9.90085L69.5159 9.95358H0.211914V16.7149C0.534184 17.2469 1.27671 18.102 2.06071 19.1446C2.84469 20.1872 3.67631 21.3915 4.22631 22.6837C5.28881 24.3185 5.28291 106.303 5.28291 106.303C5.28291 106.303 5.36416 114.744 8.71651 114.86L44.0555 114.649C43.9559 113.024 44.2997 111.91 44.8477 111.11C43.6504 109.299 42.9461 107.153 42.9461 104.824C42.9461 98.5011 48.0859 93.3618 54.4081 93.3618C55.5183 93.3618 56.5616 93.5418 57.5776 93.8371L64.2862 23.7941C64.3487 23.6828 64.3862 23.5867 64.4448 23.4773H66.135V20.0964H69.5159C69.5159 20.0964 75.2565 20.1754 75.3792 10.6941V6.25704C75.7581 5.79766 75.9601 5.20864 75.9601 4.56684C75.9601 3.09964 74.7863 1.92584 73.3191 1.92584L73.3194 1.92505ZM73.2667 2.18911C74.1604 2.18911 74.9042 2.93286 74.9042 3.82661C74.9042 4.72036 74.1604 5.41141 73.2667 5.41141C72.3729 5.41141 71.6819 4.72039 71.6819 3.82661C71.6819 2.93283 72.3729 2.18911 73.2667 2.18911Z" fill="#C81717"/>
<path d="M71.7367 6.9085C72.3891 8.4679 73.298 6.25147 73.9504 7.81123L100.073 70.1742C100.726 71.7336 100.728 71.7289 102.287 71.077L106.961 69.1102L79.5273 3.63116L76.4113 4.94206L75.1492 1.80576L74.4934 0.247559C74.4934 0.247559 72.5633 1.06318 71.3774 1.55846C69.818 2.2108 69.8227 2.21276 70.4746 3.77216C71.127 5.33156 71.0508 5.26746 71.7371 6.90886L71.7367 6.9085ZM71.8859 4.2667C71.5395 3.44287 71.9363 2.469 72.7602 2.1222C73.584 1.77572 74.5094 2.19329 74.8559 3.01712C75.2024 3.84094 74.8336 4.74562 74.0098 5.09252C73.1859 5.439 72.2324 5.09053 71.8859 4.2667Z" fill="#C81717"/>
<path d="M65.2274 104.83C65.2274 110.696 60.4719 115.451 54.6064 115.451C48.7409 115.451 43.9854 110.695 43.9854 104.83C43.9854 98.964 48.7409 94.209 54.6064 94.209C60.4719 94.209 65.2274 98.9645 65.2274 104.83Z" fill="#C81717"/>
</svg>
