<svg width="120" height="120" viewBox="0 0 120 120" fill="none" xmlns="http://www.w3.org/2000/svg">
<path d="M14.0329 108.299L14.0329 108.299L14.0329 108.288L14.0329 108.243L14.0329 108.067L14.0327 107.381C14.0325 106.78 14.032 105.899 14.0311 104.776C14.0292 102.531 14.0253 99.3217 14.0172 95.4656C14.0012 87.7534 13.9687 77.4531 13.903 67.1015C13.8374 56.7505 13.7385 46.3455 13.5895 38.4247C13.5151 34.4652 13.428 31.1215 13.3261 28.7143C13.2752 27.512 13.2203 26.5351 13.1606 25.829C13.1309 25.4774 13.0991 25.1814 13.0642 24.9537C13.0468 24.8406 13.0269 24.732 13.0028 24.6362C12.9884 24.5786 12.9596 24.4688 12.9018 24.3558C12.315 22.9902 11.4459 21.7388 10.6602 20.6938L10.063 21.1429L10.6601 20.6938C10.3443 20.2737 10.0335 19.8816 9.75964 19.5361C9.68768 19.4453 9.61828 19.3578 9.55199 19.2737C9.29813 18.9519 9.10019 18.6945 8.96191 18.4931V12.7036H77.5159H77.5269L77.5379 12.7033L79.334 12.6505L80.062 12.6292V11.9008C80.062 11.4979 80.066 11.0942 80.0699 10.6911C80.0778 9.88292 80.0857 9.07736 80.0617 8.28632L80.0539 8.02963L79.8904 7.83159C79.8239 7.75097 79.7618 7.66507 79.7054 7.57566C80.1163 7.94153 80.6614 8.16141 81.2667 8.16141C81.9552 8.16141 82.5961 7.8714 83.0402 7.39377C82.9764 7.53514 82.8958 7.66441 82.8006 7.77981L82.6292 7.98764V8.25704V12.6891C82.569 17.2691 81.1614 19.3781 79.9318 20.3661C79.3039 20.8706 78.6834 21.1156 78.2257 21.2349C77.9966 21.2945 77.8096 21.3224 77.6852 21.3353C77.6231 21.3418 77.577 21.3445 77.5495 21.3457C77.5357 21.3462 77.5267 21.3464 77.5227 21.3464L77.5159 21.3464H74.135H73.385V22.0964V24.7273H72.4448H71.9957L71.7837 25.1232C71.7478 25.1901 71.7178 25.2535 71.6962 25.299L71.6895 25.3133C71.6658 25.3632 71.65 25.3953 71.6322 25.427L71.5547 25.565L71.5396 25.7226L64.9146 94.8932C64.1121 94.7156 63.2813 94.6118 62.4081 94.6118C55.6717 94.6118 50.1961 100.087 50.1961 106.824C50.1961 109.136 50.8475 111.279 51.965 113.118C51.5631 113.86 51.3167 114.772 51.2907 115.903L16.729 116.11C16.2618 116.089 15.8242 115.789 15.4108 115.092C14.9942 114.389 14.6903 113.418 14.477 112.386C14.2661 111.366 14.1544 110.341 14.0959 109.567C14.0667 109.181 14.0509 108.86 14.0424 108.637C14.0382 108.526 14.0358 108.439 14.0344 108.38L14.0332 108.315L14.0329 108.299Z" fill="white" stroke="black" stroke-width="1.5"/>
<path d="M81.8988 3.31254C81.9663 3.28407 82.0313 3.25665 82.0934 3.23049L82.1617 3.39278C82.0758 3.36094 81.9881 3.3341 81.8988 3.31254ZM82.3008 7.78374C82.8452 7.55453 83.2554 7.15471 83.495 6.6741L83.7156 7.22205L84 7.92879L84.7022 7.63337L87.1258 6.61373L113.98 70.7093L109.998 72.385C109.998 72.3851 109.997 72.3853 109.997 72.3854C109.59 72.5553 109.343 72.6576 109.163 72.7109C109.155 72.7132 109.147 72.7154 109.14 72.7174C109.137 72.7118 109.134 72.7059 109.13 72.6997C109.04 72.5367 108.935 72.2913 108.765 71.8848L108.765 71.8845L82.6423 9.52182C82.4409 9.0403 82.1155 8.60104 81.5624 8.49488C81.1409 8.414 80.7475 8.58424 80.5855 8.65435C80.5732 8.65966 80.5623 8.6644 80.5527 8.66841C80.5193 8.68246 80.4909 8.69399 80.4667 8.70345C80.4554 8.68031 80.4427 8.65262 80.4289 8.61967L80.4291 8.61953C80.2313 8.14643 80.0978 7.81739 79.9919 7.55008C80.6485 8.00976 81.5256 8.10977 82.3005 7.78386L82.3008 7.78374ZM80.5319 8.80994C80.5318 8.8102 80.5297 8.80835 80.5259 8.80361C80.53 8.80731 80.5319 8.80968 80.5319 8.80994ZM79.3712 4.37474C79.2145 4.62899 79.1056 4.91105 79.0509 5.20493C78.9481 4.95585 78.8806 4.78325 78.8407 4.64791C78.8384 4.63999 78.8362 4.63249 78.8342 4.62538C78.8398 4.62218 78.8457 4.61885 78.8519 4.6154C78.9709 4.54908 79.1338 4.47568 79.3712 4.37474Z" fill="white" stroke="black" stroke-width="1.5"/>
<path d="M72.4774 106.83C72.4774 112.282 68.0577 116.701 62.6064 116.701C57.1551 116.701 52.7354 112.281 52.7354 106.83C52.7354 101.378 57.155 96.959 62.6064 96.959C68.0576 96.959 72.4774 101.379 72.4774 106.83Z" fill="white" stroke="black" stroke-width="1.5"/>
</svg>
